<?xml version="1.0" encoding="UTF-8"?> <svg xmlns="http://www.w3.org/2000/svg" width="506" height="319" viewBox="0 0 506 319" fill="none" class="center"><path d="M416.779 249.89C416.779 249.89 332.658 249.89 228.89 249.89C125.121 249.89 41 249.89 41 249.89C41 146.121 125.121 62 228.89 62C332.658 62 416.779 146.121 416.779 249.89Z" fill="url(#paint0_linear)"></path><path d="M415.304 281.709C417.93 281.709 419.818 280.305 419.823 278.418C419.818 276.962 418.698 275.774 417.299 275.541V275.461C418.516 275.211 419.386 274.159 419.391 272.88C419.386 271.078 417.657 269.747 415.304 269.747C412.944 269.747 411.216 271.078 411.221 272.88C411.216 274.153 412.074 275.211 413.314 275.461V275.541C411.892 275.774 410.784 276.962 410.789 278.418C410.784 280.305 412.677 281.709 415.304 281.709ZM415.304 279.901C414.132 279.901 413.348 279.208 413.348 278.224C413.348 277.218 414.172 276.49 415.304 276.49C416.429 276.49 417.259 277.218 417.259 278.224C417.259 279.213 416.469 279.901 415.304 279.901ZM415.304 274.699C414.32 274.699 413.621 274.057 413.621 273.136C413.621 272.226 414.309 271.601 415.304 271.601C416.293 271.601 416.986 272.232 416.986 273.136C416.986 274.057 416.281 274.699 415.304 274.699ZM425.797 281.709C428.39 281.709 430.152 280.021 430.147 277.667C430.152 275.438 428.595 273.835 426.497 273.835C425.473 273.835 424.592 274.261 424.183 274.836H424.114L424.416 271.919H429.504V269.906H422.386L421.835 276.047L424.024 276.439C424.382 275.956 425.075 275.654 425.763 275.654C426.934 275.66 427.776 276.507 427.776 277.73C427.776 278.941 426.952 279.776 425.797 279.776C424.819 279.776 424.029 279.162 423.972 278.258H421.584C421.63 280.271 423.387 281.709 425.797 281.709ZM436.429 281.806C439.357 281.806 441.125 279.577 441.131 275.74C441.137 271.93 439.346 269.747 436.429 269.747C433.507 269.747 431.733 271.925 431.727 275.74C431.716 279.566 433.495 281.8 436.429 281.806ZM436.429 279.765C435.093 279.765 434.229 278.423 434.235 275.74C434.24 273.096 435.099 271.766 436.429 271.766C437.754 271.766 438.618 273.096 438.618 275.74C438.624 278.423 437.759 279.765 436.429 279.765Z" fill="#2BA878"></path><path d="M23.2119 281.709C25.8272 281.709 27.6977 280.271 27.692 278.281C27.6977 276.831 26.7767 275.797 25.0654 275.58V275.49C26.3673 275.256 27.2656 274.335 27.2599 273.028C27.2656 271.191 25.6566 269.747 23.246 269.747C20.8582 269.747 19.0616 271.146 19.0275 273.159H21.3869C21.4153 272.272 22.2283 271.697 23.2347 271.697C24.2296 271.697 24.8948 272.3 24.8891 273.176C24.8948 274.091 24.1159 274.711 22.9959 274.711H21.91V276.519H22.9959C24.3149 276.519 25.1393 277.178 25.1336 278.116C25.1393 279.043 24.3433 279.68 23.2176 279.68C22.1317 279.68 21.3187 279.111 21.2732 278.258H18.7944C18.8342 280.294 20.6535 281.709 23.2119 281.709ZM34.027 281.806C36.955 281.806 38.7231 279.577 38.7288 275.74C38.7345 271.93 36.9436 269.747 34.027 269.747C31.1047 269.747 29.3308 271.925 29.3252 275.74C29.3138 279.566 31.0933 281.8 34.027 281.806ZM34.027 279.765C32.6909 279.765 31.8267 278.423 31.8324 275.74C31.8381 273.096 32.6966 271.766 34.027 271.766C35.3517 271.766 36.2159 273.096 36.2159 275.74C36.2215 278.423 35.3574 279.765 34.027 279.765ZM45.0496 281.806C47.9775 281.806 49.7457 279.577 49.7514 275.74C49.7571 271.93 47.9662 269.747 45.0496 269.747C42.1273 269.747 40.3534 271.925 40.3477 275.74C40.3364 279.566 42.1159 281.8 45.0496 281.806ZM45.0496 279.765C43.7135 279.765 42.8493 278.423 42.855 275.74C42.8607 273.096 43.7192 271.766 45.0496 271.766C46.3743 271.766 47.2384 273.096 47.2384 275.74C47.2441 278.423 46.3799 279.765 45.0496 279.765Z" fill="#ED2D5F"></path><path d="M197.883 156.694H203.273C203.228 152.339 199.76 149.394 194.347 149.394C189.026 149.394 185.194 152.294 185.228 156.626C185.216 160.162 187.695 162.152 191.721 163.073L194.154 163.642C196.712 164.233 197.861 164.927 197.883 166.234C197.861 167.656 196.53 168.645 194.268 168.645C191.777 168.645 190.14 167.485 190.015 165.245H184.625C184.693 170.692 188.48 173.296 194.336 173.296C200.135 173.296 203.569 170.669 203.592 166.246C203.569 162.527 201.056 160.253 196.462 159.241L194.461 158.786C192.346 158.332 191.004 157.627 191.05 156.239C191.061 154.966 192.153 154.045 194.336 154.045C196.53 154.045 197.736 155.034 197.883 156.694ZM214.587 173.33C219.499 173.33 222.547 170.476 222.695 166.155H217.498C217.293 168.008 216.179 169.02 214.655 169.02C212.7 169.02 211.426 167.371 211.426 164.267C211.426 161.186 212.711 159.537 214.655 159.537C216.247 159.537 217.282 160.617 217.498 162.402H222.695C222.569 158.104 219.431 155.307 214.576 155.307C209.084 155.307 205.763 158.968 205.763 164.324C205.763 169.657 209.061 173.33 214.587 173.33ZM233.693 173.33C239.185 173.33 242.517 169.702 242.517 164.324C242.517 158.934 239.185 155.307 233.693 155.307C228.201 155.307 224.869 158.934 224.869 164.324C224.869 169.702 228.201 173.33 233.693 173.33ZM233.727 169.134C231.669 169.134 230.532 167.178 230.532 164.29C230.532 161.39 231.669 159.423 233.727 159.423C235.717 159.423 236.854 161.39 236.854 164.29C236.854 167.178 235.717 169.134 233.727 169.134ZM245.365 173H250.925V163.517C250.925 161.436 252.404 160.037 254.394 160.037C255.053 160.037 256.042 160.151 256.577 160.333V155.5C256.111 155.375 255.531 155.296 255.019 155.296C253.109 155.296 251.585 156.41 250.948 158.718H250.766V155.534H245.365V173ZM266.1 173.33C270.682 173.33 273.695 171.112 274.332 167.678L269.227 167.531C268.795 168.69 267.658 169.316 266.202 169.316C264.064 169.316 262.745 167.895 262.745 165.757V165.609H274.389V164.222C274.389 158.468 270.887 155.307 265.929 155.307C260.653 155.307 257.265 158.923 257.265 164.335C257.265 169.93 260.608 173.33 266.1 173.33ZM262.745 162.38C262.825 160.64 264.201 159.321 266.043 159.321C267.874 159.321 269.193 160.594 269.215 162.38H262.745ZM164.227 208.33C169.14 208.33 172.187 205.476 172.335 201.155H167.138C166.934 203.008 165.819 204.02 164.296 204.02C162.34 204.02 161.066 202.371 161.066 199.267C161.066 196.186 162.351 194.537 164.296 194.537C165.887 194.537 166.922 195.617 167.138 197.402H172.335C172.21 193.104 169.071 190.307 164.216 190.307C158.724 190.307 155.404 193.968 155.404 199.324C155.404 204.657 158.701 208.33 164.227 208.33ZM175.18 208H180.741V198.517C180.741 196.436 182.219 195.037 184.209 195.037C184.868 195.037 185.857 195.151 186.392 195.333V190.5C185.926 190.375 185.346 190.296 184.834 190.296C182.924 190.296 181.4 191.41 180.763 193.718H180.581V190.534H175.18V208ZM195.915 208.33C200.497 208.33 203.511 206.112 204.147 202.678L199.042 202.531C198.61 203.69 197.473 204.316 196.017 204.316C193.88 204.316 192.561 202.895 192.561 200.757V200.609H204.204V199.222C204.204 193.468 200.702 190.307 195.744 190.307C190.468 190.307 187.08 193.923 187.08 199.335C187.08 204.93 190.423 208.33 195.915 208.33ZM192.561 197.38C192.64 195.64 194.016 194.321 195.858 194.321C197.689 194.321 199.008 195.594 199.031 197.38H192.561ZM213.423 208.25C216.061 208.25 217.63 206.783 218.335 205.169H218.506V208H224.009V184.713H218.449V193.525H218.335C217.676 191.922 216.152 190.307 213.4 190.307C209.75 190.307 206.441 193.116 206.441 199.279C206.441 205.226 209.568 208.25 213.423 208.25ZM215.356 203.918C213.298 203.918 212.15 202.087 212.15 199.267C212.15 196.459 213.287 194.651 215.356 194.651C217.392 194.651 218.574 196.413 218.574 199.267C218.574 202.099 217.38 203.918 215.356 203.918ZM227.526 208H233.086V190.534H227.526V208ZM230.312 188.499C231.892 188.499 233.166 187.305 233.166 185.838C233.166 184.371 231.892 183.189 230.312 183.189C228.742 183.189 227.458 184.371 227.458 185.838C227.458 187.305 228.742 188.499 230.312 188.499ZM246.484 190.534H243.334V186.35H237.774V190.534H235.465V194.628H237.774V203.122C237.74 206.658 240.036 208.432 243.959 208.25C245.301 208.182 246.268 207.909 246.802 207.75L245.961 203.736C245.722 203.793 245.165 203.907 244.744 203.907C243.846 203.907 243.334 203.543 243.334 202.508V194.628H246.484V190.534ZM249.321 208H254.881V190.534H249.321V208ZM252.107 188.499C253.687 188.499 254.961 187.305 254.961 185.838C254.961 184.371 253.687 183.189 252.107 183.189C250.537 183.189 249.253 184.371 249.253 185.838C249.253 187.305 250.537 188.499 252.107 188.499ZM266.573 208.33C271.485 208.33 274.533 205.476 274.68 201.155H269.484C269.279 203.008 268.165 204.02 266.641 204.02C264.686 204.02 263.412 202.371 263.412 199.267C263.412 196.186 264.697 194.537 266.641 194.537C268.233 194.537 269.268 195.617 269.484 197.402H274.68C274.555 193.104 271.417 190.307 266.562 190.307C261.07 190.307 257.749 193.968 257.749 199.324C257.749 204.657 261.047 208.33 266.573 208.33ZM277.526 208H283.086V190.534H277.526V208ZM280.312 188.499C281.892 188.499 283.166 187.305 283.166 185.838C283.166 184.371 281.892 183.189 280.312 183.189C278.743 183.189 277.458 184.371 277.458 185.838C277.458 187.305 278.743 188.499 280.312 188.499ZM294.778 208.33C300.27 208.33 303.602 204.702 303.602 199.324C303.602 193.934 300.27 190.307 294.778 190.307C289.286 190.307 285.955 193.934 285.955 199.324C285.955 204.702 289.286 208.33 294.778 208.33ZM294.812 204.134C292.754 204.134 291.617 202.178 291.617 199.29C291.617 196.39 292.754 194.423 294.812 194.423C296.802 194.423 297.939 196.39 297.939 199.29C297.939 202.178 296.802 204.134 294.812 204.134Z" fill="#243D4C"></path><path fill-rule="evenodd" clip-rule="evenodd" d="M127.194 75.2311C148.484 62.7804 171.919 54.2898 196.348 50.2368L198.663 64.8496C175.814 68.654 153.905 76.6465 134.033 88.3723L127.194 75.2311ZM124.647 76.7459C110.778 85.1318 97.8541 95.218 86.2029 106.869C48.1922 144.88 26.838 196.433 26.838 250.189C26.838 254.274 30.1499 257.586 34.2353 257.586C38.3206 257.586 41.6325 254.274 41.6325 250.189C41.6325 200.357 61.428 152.567 96.6641 117.33C107.238 106.757 118.941 97.574 131.492 89.8989L124.647 76.7459ZM229.522 62.2989C220.113 62.2989 210.778 63.0046 201.585 64.3867L199.271 49.7739C209.224 48.2716 219.334 47.5044 229.522 47.5044C238.515 47.5044 247.445 48.102 256.262 49.2752L254.202 63.9261C246.065 62.848 237.822 62.2989 229.522 62.2989ZM257.133 64.3378L259.192 49.6869C278.123 52.488 296.494 57.9476 313.776 65.846L307.523 79.2547C291.565 71.973 274.607 66.9336 257.133 64.3378ZM310.205 80.5042C325.984 88.0064 340.743 97.7214 354.003 109.45L363.903 98.4557C349.545 85.7392 333.556 75.2135 316.458 67.0955L310.205 80.5042ZM362.38 117.331C360.362 115.312 358.302 113.344 356.204 111.428L366.103 100.434C368.393 102.522 370.64 104.668 372.841 106.869C384.189 118.217 394.052 130.771 402.305 144.23L389.623 151.85C381.986 139.416 372.867 127.817 362.38 117.331ZM391.152 154.384C408.198 183.143 417.412 216.191 417.412 250.189C417.412 254.274 420.724 257.586 424.809 257.586C428.894 257.586 432.206 254.274 432.206 250.189C432.206 213.484 422.25 177.805 403.833 146.764L391.152 154.384Z" fill="url(#paint1_linear)"></path><path d="M213.907 15H218.051C220.564 15 221.699 13.7488 221.699 12.0911C221.699 10.4176 220.527 9.47257 219.455 9.4145V9.30891C220.448 9.05551 221.277 8.37976 221.277 7.02825C221.277 5.42863 220.168 4.18799 217.866 4.18799H213.907V15ZM215.538 13.601V10.1378H217.951C219.26 10.1378 220.078 10.9825 220.078 12.0119C220.078 12.92 219.461 13.601 217.893 13.601H215.538ZM215.538 8.86545V5.57645H217.766C219.059 5.57645 219.677 6.25748 219.677 7.15496C219.677 8.20026 218.822 8.86545 217.724 8.86545H215.538ZM225.867 15.1795C227.208 15.1795 227.963 14.4985 228.264 13.8913H228.327V15H229.869V9.61511C229.869 7.25526 228.01 6.78541 226.722 6.78541C225.255 6.78541 223.903 7.37669 223.375 8.85489L224.859 9.19277C225.091 8.61732 225.682 8.063 226.743 8.063C227.762 8.063 228.285 8.59621 228.285 9.5148V9.55176C228.285 10.1272 227.694 10.1166 226.237 10.2856C224.7 10.4651 223.127 10.8663 223.127 12.7088C223.127 14.3031 224.325 15.1795 225.867 15.1795ZM226.21 13.9125C225.318 13.9125 224.674 13.5112 224.674 12.7299C224.674 11.8852 225.424 11.5843 226.337 11.4629C226.849 11.3942 228.063 11.257 228.29 11.03V12.0753C228.29 13.0361 227.525 13.9125 226.21 13.9125ZM231.971 6.89099V15.5174C231.971 16.267 231.66 16.6788 230.91 16.6788H230.657V18.0356C230.768 18.0409 230.868 18.0409 230.979 18.0409C232.658 18.0409 233.55 17.154 233.55 15.5279V6.89099H231.971ZM232.753 5.6398C233.296 5.6398 233.75 5.21745 233.75 4.70008C233.75 4.18271 233.296 3.75509 232.753 3.75509C232.203 3.75509 231.755 4.18271 231.755 4.70008C231.755 5.21745 232.203 5.6398 232.753 5.6398ZM239.089 15.1637C241.375 15.1637 242.869 13.4901 242.869 10.9825C242.869 8.45894 241.375 6.78541 239.089 6.78541C236.803 6.78541 235.309 8.45894 235.309 10.9825C235.309 13.4901 236.803 15.1637 239.089 15.1637ZM239.094 13.8386C237.6 13.8386 236.903 12.5346 236.903 10.9772C236.903 9.42506 237.6 8.10523 239.094 8.10523C240.578 8.10523 241.275 9.42506 241.275 10.9772C241.275 12.5346 240.578 13.8386 239.094 13.8386Z" fill="#243D4C"></path><path d="M218.649 33.1478C220.824 33.1478 222.376 31.6115 222.371 29.5051C222.376 27.4145 220.919 25.8941 218.95 25.8941C218.147 25.8941 217.403 26.2003 216.981 26.612H216.917L217.26 23.587H221.848V22.188H215.904L215.297 27.6362L216.791 27.858C217.197 27.4937 217.926 27.2456 218.58 27.2456C219.863 27.2561 220.792 28.217 220.792 29.5368C220.792 30.8355 219.89 31.7752 218.649 31.7752C217.604 31.7752 216.775 31.11 216.69 30.1809H215.106C215.17 31.9019 216.664 33.1478 218.649 33.1478ZM227.952 33.1478C230.201 33.1478 231.79 31.8702 231.801 30.1175C231.79 28.7554 230.835 27.6098 229.626 27.3934V27.33C230.676 27.0766 231.389 26.0894 231.4 24.9227C231.389 23.2702 229.932 22.0402 227.952 22.0402C225.951 22.0402 224.494 23.2702 224.505 24.9227C224.494 26.0841 225.207 27.0766 226.279 27.33V27.3934C225.049 27.6098 224.093 28.7554 224.104 30.1175C224.093 31.8702 225.682 33.1478 227.952 33.1478ZM227.952 31.8122C226.601 31.8122 225.746 31.0942 225.756 30.0119C225.746 28.8874 226.675 28.085 227.952 28.085C229.209 28.085 230.138 28.8874 230.149 30.0119C230.138 31.0942 229.288 31.8122 227.952 31.8122ZM227.952 26.781C226.86 26.781 226.083 26.0894 226.094 25.0599C226.083 24.0463 226.833 23.3758 227.952 23.3758C229.05 23.3758 229.8 24.0463 229.811 25.0599C229.8 26.0894 229.029 26.781 227.952 26.781ZM237.456 33.1795C239.953 33.1795 241.416 31.1417 241.416 27.5993C241.416 24.0833 239.932 22.0402 237.456 22.0402C234.975 22.0402 233.497 24.078 233.492 27.5993C233.492 31.1364 234.954 33.1742 237.456 33.1795ZM237.456 31.7699C235.994 31.7699 235.112 30.3023 235.112 27.5993C235.118 24.9068 235.999 23.4233 237.456 23.4233C238.908 23.4233 239.795 24.9068 239.795 27.5993C239.795 30.3023 238.913 31.7699 237.456 31.7699Z" fill="#A9A9A9"></path><path d="M114.582 14.4802V25.2922H116.134V17.463H116.235L119.423 25.2764H120.712L123.9 17.4683H124.001V25.2922H125.553V14.4802H123.573L120.131 22.8849H120.004L116.562 14.4802H114.582ZM132.935 21.9293C132.94 23.3072 131.916 23.9619 131.029 23.9619C130.052 23.9619 129.376 23.2544 129.376 22.1511V17.1832H127.798V22.3411C127.798 24.3525 128.901 25.3978 130.459 25.3978C131.678 25.3978 132.507 24.7537 132.882 23.8879H132.966V25.2922H134.518V17.1832H132.935V21.9293ZM136.639 17.1832V25.8096C136.639 26.5593 136.328 26.9711 135.578 26.9711H135.325V28.3278C135.436 28.3331 135.536 28.3331 135.647 28.3331C137.326 28.3331 138.218 27.4462 138.218 25.8202V17.1832H136.639ZM137.421 15.932C137.964 15.932 138.418 15.5097 138.418 14.9923C138.418 14.4749 137.964 14.0473 137.421 14.0473C136.872 14.0473 136.423 14.4749 136.423 14.9923C136.423 15.5097 136.872 15.932 137.421 15.932ZM144.403 25.2922H145.944V24.0305H146.076C146.361 24.5479 146.942 25.4506 148.42 25.4506C150.384 25.4506 151.809 23.8774 151.809 21.2536C151.809 18.6245 150.363 17.0776 148.404 17.0776C146.9 17.0776 146.356 17.9962 146.076 18.4978H145.981V14.4802H144.403V25.2922ZM145.949 21.2377C145.949 19.5431 146.688 18.4186 148.066 18.4186C149.497 18.4186 150.215 19.6275 150.215 21.2377C150.215 22.8638 149.476 24.1044 148.066 24.1044C146.71 24.1044 145.949 22.9429 145.949 21.2377ZM155.942 25.4717C157.283 25.4717 158.038 24.7907 158.339 24.1836H158.402V25.2922H159.943V19.9073C159.943 17.5475 158.085 17.0776 156.797 17.0776C155.329 17.0776 153.978 17.6689 153.45 19.1471L154.933 19.485C155.166 18.9096 155.757 18.3552 156.818 18.3552C157.837 18.3552 158.36 18.8884 158.36 19.807V19.844C158.36 20.4194 157.768 20.4089 156.311 20.5778C154.775 20.7573 153.202 21.1585 153.202 23.001C153.202 24.5954 154.4 25.4717 155.942 25.4717ZM156.285 24.2047C155.393 24.2047 154.749 23.8035 154.749 23.0221C154.749 22.1774 155.498 21.8765 156.412 21.7551C156.924 21.6865 158.138 21.5492 158.365 21.3222V22.3675C158.365 23.3283 157.599 24.2047 156.285 24.2047ZM162.046 17.1832V25.8096C162.046 26.5593 161.734 26.9711 160.985 26.9711H160.731V28.3278C160.842 28.3331 160.943 28.3331 161.053 28.3331C162.732 28.3331 163.624 27.4462 163.624 25.8202V17.1832H162.046ZM162.827 15.932C163.371 15.932 163.825 15.5097 163.825 14.9923C163.825 14.4749 163.371 14.0473 162.827 14.0473C162.278 14.0473 161.829 14.4749 161.829 14.9923C161.829 15.5097 162.278 15.932 162.827 15.932ZM169.164 25.4559C171.45 25.4559 172.944 23.7824 172.944 21.2747C172.944 18.7512 171.45 17.0776 169.164 17.0776C166.878 17.0776 165.384 18.7512 165.384 21.2747C165.384 23.7824 166.878 25.4559 169.164 25.4559ZM169.169 24.1308C167.675 24.1308 166.978 22.8268 166.978 21.2694C166.978 19.7173 167.675 18.3975 169.169 18.3975C170.653 18.3975 171.349 19.7173 171.349 21.2694C171.349 22.8268 170.653 24.1308 169.169 24.1308Z" fill="#243D4C"></path><path d="M133.922 43.4401C136.098 43.4401 137.65 41.9038 137.644 39.7973C137.65 37.7067 136.193 36.1863 134.223 36.1863C133.421 36.1863 132.677 36.4925 132.254 36.9043H132.191L132.534 33.8792H137.122V32.4802H131.177L130.57 37.9285L132.064 38.1502C132.471 37.7859 133.199 37.5378 133.854 37.5378C135.137 37.5484 136.066 38.5092 136.066 39.829C136.066 41.1277 135.163 42.0674 133.922 42.0674C132.877 42.0674 132.048 41.4022 131.964 40.4731H130.38C130.443 42.1941 131.937 43.4401 133.922 43.4401ZM143.337 43.4717C145.834 43.4717 147.296 41.4339 147.296 37.8915C147.296 34.3755 145.813 32.3324 143.337 32.3324C140.855 32.3324 139.377 34.3702 139.372 37.8915C139.372 41.4286 140.834 43.4665 143.337 43.4717ZM143.337 42.0622C141.874 42.0622 140.993 40.5945 140.993 37.8915C140.998 35.1991 141.88 33.7156 143.337 33.7156C144.789 33.7156 145.675 35.1991 145.675 37.8915C145.675 40.5945 144.794 42.0622 143.337 42.0622ZM152.933 43.4717C155.43 43.4717 156.893 41.4339 156.893 37.8915C156.893 34.3755 155.409 32.3324 152.933 32.3324C150.452 32.3324 148.974 34.3702 148.968 37.8915C148.968 41.4286 150.431 43.4665 152.933 43.4717ZM152.933 42.0622C151.471 42.0622 150.589 40.5945 150.589 37.8915C150.594 35.1991 151.476 33.7156 152.933 33.7156C154.385 33.7156 155.272 35.1991 155.272 37.8915C155.272 40.5945 154.39 42.0622 152.933 42.0622Z" fill="#A9A9A9"></path><path d="M271.471 21.8615H273.103V17.77H275.32C275.357 17.77 275.389 17.77 275.426 17.77L277.622 21.8615H279.48L277.083 17.4849C278.408 16.9939 279.068 15.8906 279.068 14.4388C279.068 12.4485 277.833 11.0494 275.325 11.0494H271.471V21.8615ZM273.103 16.3657V12.4485H275.151C276.761 12.4485 277.427 13.214 277.427 14.4388C277.427 15.6583 276.761 16.3657 275.172 16.3657H273.103ZM284.32 22.0251C286.089 22.0251 287.34 21.154 287.699 19.8342L286.205 19.565C285.92 20.3305 285.233 20.7211 284.336 20.7211C282.984 20.7211 282.076 19.8448 282.034 18.2821H287.799V17.7225C287.799 14.7925 286.046 13.6469 284.209 13.6469C281.95 13.6469 280.461 15.3679 280.461 17.8597C280.461 20.378 281.928 22.0251 284.32 22.0251ZM282.039 17.0995C282.103 15.9486 282.937 14.9508 284.22 14.9508C285.444 14.9508 286.247 15.8589 286.252 17.0995H282.039ZM292.95 25.0713C295.015 25.0713 296.609 24.1263 296.609 22.0409V13.7524H295.062V15.067H294.946C294.666 14.5655 294.106 13.6469 292.597 13.6469C290.638 13.6469 289.197 15.1937 289.197 17.7753C289.197 20.3621 290.67 21.74 292.586 21.74C294.075 21.74 294.65 20.9006 294.935 20.3832H295.036V21.9776C295.036 23.2499 294.165 23.799 292.966 23.799C291.652 23.799 291.14 23.139 290.86 22.6745L289.503 23.2341C289.931 24.2266 291.013 25.0713 292.95 25.0713ZM292.934 20.4308C291.525 20.4308 290.791 19.3485 290.791 17.7542C290.791 16.1968 291.509 14.9878 292.934 14.9878C294.312 14.9878 295.051 16.1123 295.051 17.7542C295.051 19.4277 294.297 20.4308 292.934 20.4308ZM303.863 18.4985C303.868 19.8764 302.844 20.5311 301.957 20.5311C300.98 20.5311 300.304 19.8236 300.304 18.7203V13.7524H298.726V18.9103C298.726 20.9217 299.829 21.967 301.387 21.967C302.606 21.967 303.435 21.323 303.81 20.4572H303.894V21.8615H305.446V13.7524H303.863V18.4985ZM309.146 11.0494H307.567V21.8615H309.146V11.0494ZM313.629 22.0409C314.97 22.0409 315.725 21.3599 316.026 20.7528H316.09V21.8615H317.631V16.4766C317.631 14.1167 315.773 13.6469 314.485 13.6469C313.017 13.6469 311.665 14.2381 311.138 15.7163L312.621 16.0542C312.853 15.4788 313.445 14.9244 314.506 14.9244C315.525 14.9244 316.047 15.4577 316.047 16.3763V16.4132C316.047 16.9887 315.456 16.9781 313.999 17.147C312.463 17.3265 310.889 17.7278 310.889 19.5702C310.889 21.1646 312.088 22.0409 313.629 22.0409ZM313.973 20.7739C313.08 20.7739 312.436 20.3727 312.436 19.5914C312.436 18.7467 313.186 18.4457 314.099 18.3243C314.611 18.2557 315.826 18.1184 316.053 17.8914V18.9367C316.053 19.8975 315.287 20.7739 313.973 20.7739ZM319.734 21.8615H321.312V16.9095C321.312 15.8483 322.13 15.0828 323.25 15.0828C323.577 15.0828 323.946 15.1409 324.073 15.1779V13.668C323.915 13.6469 323.603 13.631 323.403 13.631C322.452 13.631 321.639 14.1695 321.344 15.0406H321.259V13.7524H319.734V21.8615Z" fill="#243D4C"></path><path d="M288.063 40.0093C290.323 40.0304 291.822 38.4044 291.817 36.3296C291.822 34.2601 290.317 32.7766 288.443 32.7766C287.303 32.7766 286.316 33.3257 285.761 34.239H285.682C285.687 31.7841 286.616 30.327 288.2 30.327C289.24 30.327 289.895 30.9605 290.117 31.858H291.727C291.479 30.1475 290.132 28.9016 288.2 28.9016C285.687 28.9016 284.119 31.0609 284.119 34.8197C284.114 38.8003 286.141 39.9934 288.063 40.0093ZM288.058 38.6367C286.801 38.6367 285.883 37.5808 285.883 36.3666C285.888 35.1576 286.849 34.1017 288.095 34.1017C289.33 34.1017 290.238 35.0995 290.233 36.3507C290.238 37.6283 289.293 38.6367 288.058 38.6367ZM293.74 39.8615H300.856V38.4624H295.989V38.3832L298.137 36.1343C300.117 34.1334 300.682 33.1779 300.682 31.9689C300.682 30.232 299.267 28.9016 297.229 28.9016C295.207 28.9016 293.729 30.2109 293.729 32.1853H295.286C295.281 31.0239 296.031 30.2637 297.198 30.2637C298.296 30.2637 299.13 30.9394 299.13 32.0164C299.13 32.972 298.56 33.6583 297.398 34.8883L293.74 38.6789V39.8615ZM306.621 40.0409C309.118 40.0409 310.581 38.0031 310.581 34.4607C310.581 30.9447 309.097 28.9016 306.621 28.9016C304.14 28.9016 302.662 30.9394 302.656 34.4607C302.656 37.9979 304.119 40.0357 306.621 40.0409ZM306.621 38.6314C305.159 38.6314 304.277 37.1637 304.277 34.4607C304.282 31.7683 305.164 30.2848 306.621 30.2848C308.073 30.2848 308.96 31.7683 308.96 34.4607C308.96 37.1637 308.078 38.6314 306.621 38.6314Z" fill="#A9A9A9"></path><path d="M341.134 48.1638H345.279C347.791 48.1638 348.927 46.9126 348.927 45.2549C348.927 43.5814 347.755 42.6364 346.683 42.5783V42.4727C347.675 42.2193 348.504 41.5436 348.504 40.1921C348.504 38.5924 347.396 37.3518 345.094 37.3518H341.134V48.1638ZM342.766 46.7648V43.3016H345.178C346.487 43.3016 347.306 44.1463 347.306 45.1757C347.306 46.0838 346.688 46.7648 345.12 46.7648H342.766ZM342.766 42.0293V38.7403H344.993C346.287 38.7403 346.905 39.4213 346.905 40.3188C346.905 41.3641 346.049 42.0293 344.951 42.0293H342.766ZM355.871 44.8009C355.877 46.1788 354.853 46.8334 353.966 46.8334C352.989 46.8334 352.313 46.126 352.313 45.0226V40.0548H350.735V45.2127C350.735 47.2241 351.838 48.2694 353.395 48.2694C354.615 48.2694 355.444 47.6253 355.819 46.7595H355.903V48.1638H357.455V40.0548H355.871V44.8009ZM363.071 48.3275C364.84 48.3275 366.091 47.4564 366.45 46.1366L364.956 45.8673C364.671 46.6328 363.984 47.0235 363.087 47.0235C361.735 47.0235 360.827 46.1471 360.785 44.5845H366.55V44.0248C366.55 41.0948 364.797 39.9492 362.96 39.9492C360.701 39.9492 359.212 41.6703 359.212 44.1621C359.212 46.6803 360.68 48.3275 363.071 48.3275ZM360.79 43.4019C360.854 42.251 361.688 41.2532 362.971 41.2532C364.196 41.2532 364.998 42.1613 365.003 43.4019H360.79ZM369.88 43.3491C369.88 42.0557 370.672 41.3166 371.77 41.3166C372.842 41.3166 373.491 42.0187 373.491 43.196V48.1638H375.07V43.0059C375.07 40.9998 373.966 39.9492 372.309 39.9492C371.089 39.9492 370.292 40.5141 369.917 41.3746H369.817V40.0548H368.302V48.1638H369.88V43.3491ZM380.602 48.3275C382.888 48.3275 384.382 46.6539 384.382 44.1463C384.382 41.6228 382.888 39.9492 380.602 39.9492C378.316 39.9492 376.822 41.6228 376.822 44.1463C376.822 46.6539 378.316 48.3275 380.602 48.3275ZM380.608 47.0024C379.114 47.0024 378.417 45.6984 378.417 44.141C378.417 42.5889 379.114 41.269 380.608 41.269C382.091 41.269 382.788 42.5889 382.788 44.141C382.788 45.6984 382.091 47.0024 380.608 47.0024Z" fill="#243D4C"></path><path d="M353.08 66.3116C355.34 66.3328 356.839 64.7067 356.834 62.632C356.839 60.5625 355.334 59.079 353.46 59.079C352.32 59.079 351.333 59.628 350.778 60.5414H350.699C350.704 58.0865 351.633 56.6294 353.217 56.6294C354.257 56.6294 354.912 57.2629 355.134 58.1604H356.744C356.496 56.4499 355.149 55.204 353.217 55.204C350.704 55.204 349.136 57.3632 349.136 61.1221C349.131 65.1027 351.158 66.2958 353.08 66.3116ZM353.075 64.939C351.818 64.939 350.9 63.8832 350.9 62.6689C350.905 61.46 351.866 60.4041 353.112 60.4041C354.347 60.4041 355.255 61.4019 355.25 62.6531C355.255 63.9307 354.31 64.939 353.075 64.939ZM362.531 66.3116C364.791 66.3328 366.29 64.7067 366.285 62.632C366.29 60.5625 364.786 59.079 362.911 59.079C361.771 59.079 360.784 59.628 360.23 60.5414H360.15C360.156 58.0865 361.085 56.6294 362.669 56.6294C363.709 56.6294 364.363 57.2629 364.585 58.1604H366.195C365.947 56.4499 364.601 55.204 362.669 55.204C360.156 55.204 358.588 57.3632 358.588 61.1221C358.582 65.1027 360.61 66.2958 362.531 66.3116ZM362.526 64.939C361.27 64.939 360.351 63.8832 360.351 62.6689C360.356 61.46 361.317 60.4041 362.563 60.4041C363.798 60.4041 364.706 61.4019 364.701 62.6531C364.706 63.9307 363.761 64.939 362.526 64.939ZM371.972 66.3433C374.469 66.3433 375.931 64.3055 375.931 60.7631C375.931 57.2471 374.448 55.204 371.972 55.204C369.491 55.204 368.013 57.2418 368.007 60.7631C368.007 64.3002 369.47 66.338 371.972 66.3433ZM371.972 64.9337C370.51 64.9337 369.628 63.4661 369.628 60.7631C369.633 58.0706 370.515 56.5872 371.972 56.5872C373.424 56.5872 374.311 58.0706 374.311 60.7631C374.311 63.4661 373.429 64.9337 371.972 64.9337Z" fill="#A9A9A9"></path><g opacity="0.7"><path d="M390.396 87.6692V98.4812H391.948V90.652H392.048L395.237 98.4654H396.525L399.714 90.6573H399.814V98.4812H401.366V87.6692H399.386L395.944 96.0738H395.818L392.376 87.6692H390.396ZM408.748 95.1183C408.753 96.4962 407.729 97.1508 406.842 97.1508C405.865 97.1508 405.19 96.4434 405.19 95.34V90.3722H403.611V95.5301C403.611 97.5415 404.715 98.5868 406.272 98.5868C407.491 98.5868 408.32 97.9427 408.695 97.0769H408.78V98.4812H410.332V90.3722H408.748V95.1183ZM413.451 101.522C414.754 101.522 415.578 100.841 416.048 99.5635L419.4 90.388L417.695 90.3722L415.641 96.6651H415.557L413.503 90.3722H411.814L414.781 98.5868L414.586 99.1253C414.184 100.202 413.619 100.292 412.754 100.054L412.374 101.348C412.564 101.432 412.975 101.522 413.451 101.522ZM424.949 98.4812H426.49V97.2194H426.622C426.907 97.7368 427.488 98.6396 428.966 98.6396C430.93 98.6396 432.356 97.0663 432.356 94.4425C432.356 91.8134 430.909 90.2666 428.951 90.2666C427.446 90.2666 426.902 91.1852 426.622 91.6867H426.527V87.6692H424.949V98.4812ZM426.496 94.4267C426.496 92.732 427.235 91.6075 428.613 91.6075C430.043 91.6075 430.761 92.8165 430.761 94.4267C430.761 96.0527 430.022 97.2934 428.613 97.2934C427.256 97.2934 426.496 96.1319 426.496 94.4267ZM439.265 95.1183C439.27 96.4962 438.246 97.1508 437.359 97.1508C436.382 97.1508 435.707 96.4434 435.707 95.34V90.3722H434.128V95.5301C434.128 97.5415 435.232 98.5868 436.789 98.5868C438.009 98.5868 438.837 97.9427 439.212 97.0769H439.297V98.4812H440.849V90.3722H439.265V95.1183ZM446.465 98.6449C448.233 98.6449 449.484 97.7738 449.843 96.4539L448.349 96.1847C448.064 96.9502 447.378 97.3409 446.48 97.3409C445.129 97.3409 444.221 96.4645 444.179 94.9018H449.944V94.3422C449.944 91.4122 448.191 90.2666 446.354 90.2666C444.094 90.2666 442.605 91.9877 442.605 94.4795C442.605 96.9977 444.073 98.6449 446.465 98.6449ZM444.184 93.7193C444.247 92.5684 445.081 91.5706 446.364 91.5706C447.589 91.5706 448.392 92.4786 448.397 93.7193H444.184ZM453.274 93.6665C453.274 92.373 454.065 91.6339 455.164 91.6339C456.235 91.6339 456.885 92.3361 456.885 93.5134V98.4812H458.463V93.3233C458.463 91.3172 457.36 90.2666 455.702 90.2666C454.483 90.2666 453.685 90.8315 453.311 91.692H453.21V90.3722H451.695V98.4812H453.274V93.6665ZM463.996 98.6449C466.282 98.6449 467.776 96.9713 467.776 94.4637C467.776 91.9401 466.282 90.2666 463.996 90.2666C461.71 90.2666 460.216 91.9401 460.216 94.4637C460.216 96.9713 461.71 98.6449 463.996 98.6449ZM464.001 97.3198C462.507 97.3198 461.81 96.0158 461.81 94.4584C461.81 92.9063 462.507 91.5864 464.001 91.5864C465.485 91.5864 466.181 92.9063 466.181 94.4584C466.181 96.0158 465.485 97.3198 464.001 97.3198Z" fill="black"></path><path d="M416.462 116.481H418.167L422.871 107.116V105.669H415.723V107.068H421.181V107.147L416.462 116.481ZM428.238 116.661C430.736 116.661 432.198 114.623 432.198 111.08C432.198 107.564 430.714 105.521 428.238 105.521C425.757 105.521 424.279 107.559 424.274 111.08C424.274 114.618 425.736 116.655 428.238 116.661ZM428.238 115.251C426.776 115.251 425.894 113.783 425.894 111.08C425.9 108.388 426.781 106.905 428.238 106.905C429.69 106.905 430.577 108.388 430.577 111.08C430.577 113.783 429.696 115.251 428.238 115.251ZM437.835 116.661C440.332 116.661 441.794 114.623 441.794 111.08C441.794 107.564 440.311 105.521 437.835 105.521C435.354 105.521 433.875 107.559 433.87 111.08C433.87 114.618 435.333 116.655 437.835 116.661ZM437.835 115.251C436.373 115.251 435.491 113.783 435.491 111.08C435.496 108.388 436.378 106.905 437.835 106.905C439.287 106.905 440.174 108.388 440.174 111.08C440.174 113.783 439.292 115.251 437.835 115.251Z" fill="#848484"></path></g><path d="M437.043 181.962H443.885V180.558H438.675V177.248H443.468V175.849H438.675V172.555H443.822V171.15H437.043V181.962ZM447.12 173.853H445.389L447.881 177.908L445.357 181.962H447.089L448.91 178.932L450.737 181.962H452.463L449.913 177.908L452.442 173.853H450.716L448.91 177.01L447.12 173.853ZM457.144 182.126C459.061 182.126 460.301 180.975 460.476 179.397H458.939C458.739 180.273 458.058 180.79 457.155 180.79C455.819 180.79 454.959 179.676 454.959 177.908C454.959 176.171 455.835 175.078 457.155 175.078C458.158 175.078 458.77 175.712 458.939 176.472H460.476C460.307 174.835 458.971 173.748 457.129 173.748C454.843 173.748 453.364 175.469 453.364 177.945C453.364 180.389 454.79 182.126 457.144 182.126ZM465.659 182.126C467.427 182.126 468.678 181.255 469.037 179.935L467.543 179.666C467.258 180.431 466.572 180.822 465.674 180.822C464.323 180.822 463.415 179.946 463.373 178.383H469.138V177.823C469.138 174.893 467.385 173.748 465.548 173.748C463.288 173.748 461.799 175.469 461.799 177.961C461.799 180.479 463.267 182.126 465.659 182.126ZM463.378 177.2C463.441 176.05 464.275 175.052 465.558 175.052C466.783 175.052 467.586 175.96 467.591 177.2H463.378ZM472.468 171.15H470.889V181.962H472.468V171.15ZM478.086 182.126C479.855 182.126 481.106 181.255 481.465 179.935L479.971 179.666C479.686 180.431 478.999 180.822 478.102 180.822C476.75 180.822 475.842 179.946 475.8 178.383H481.565V177.823C481.565 174.893 479.812 173.748 477.975 173.748C475.716 173.748 474.227 175.469 474.227 177.961C474.227 180.479 475.695 182.126 478.086 182.126ZM475.805 177.2C475.869 176.05 476.703 175.052 477.986 175.052C479.211 175.052 480.013 175.96 480.018 177.2H475.805ZM484.895 177.148C484.895 175.854 485.687 175.115 486.785 175.115C487.857 175.115 488.506 175.817 488.506 176.995V181.962H490.085V176.805C490.085 174.798 488.981 173.748 487.324 173.748C486.104 173.748 485.307 174.313 484.932 175.173H484.832V173.853H483.317V181.962H484.895V177.148ZM495.987 173.853H494.324V171.911H492.745V173.853H491.558V175.12H492.745V179.909C492.74 181.382 493.865 182.094 495.111 182.068C495.612 182.063 495.95 181.968 496.135 181.899L495.85 180.595C495.744 180.616 495.549 180.664 495.295 180.664C494.783 180.664 494.324 180.495 494.324 179.581V175.12H495.987V173.853ZM501.141 182.126C502.909 182.126 504.161 181.255 504.52 179.935L503.026 179.666C502.74 180.431 502.054 180.822 501.157 180.822C499.805 180.822 498.897 179.946 498.855 178.383H504.62V177.823C504.62 174.893 502.867 173.748 501.03 173.748C498.77 173.748 497.282 175.469 497.282 177.961C497.282 180.479 498.749 182.126 501.141 182.126ZM498.86 177.2C498.924 176.05 499.758 175.052 501.041 175.052C502.265 175.052 503.068 175.96 503.073 177.2H498.86Z" fill="#243D4C"></path><path d="M460.983 200.11C463.232 200.11 464.821 198.833 464.832 197.08C464.821 195.718 463.866 194.572 462.657 194.356V194.292C463.707 194.039 464.42 193.052 464.431 191.885C464.42 190.233 462.963 189.003 460.983 189.003C458.982 189.003 457.525 190.233 457.536 191.885C457.525 193.047 458.238 194.039 459.31 194.292V194.356C458.08 194.572 457.124 195.718 457.135 197.08C457.124 198.833 458.713 200.11 460.983 200.11ZM460.983 198.775C459.632 198.775 458.776 198.057 458.787 196.974C458.776 195.85 459.706 195.047 460.983 195.047C462.24 195.047 463.169 195.85 463.179 196.974C463.169 198.057 462.319 198.775 460.983 198.775ZM460.983 193.743C459.89 193.743 459.114 193.052 459.125 192.022C459.114 191.009 459.864 190.338 460.983 190.338C462.081 190.338 462.831 191.009 462.841 192.022C462.831 193.052 462.06 193.743 460.983 193.743ZM470.487 200.142C472.984 200.142 474.447 198.104 474.447 194.562C474.447 191.046 472.963 189.003 470.487 189.003C468.006 189.003 466.528 191.04 466.522 194.562C466.522 198.099 467.985 200.137 470.487 200.142ZM470.487 198.732C469.025 198.732 468.143 197.265 468.143 194.562C468.148 191.869 469.03 190.386 470.487 190.386C471.939 190.386 472.826 191.869 472.826 194.562C472.826 197.265 471.944 198.732 470.487 198.732ZM480.084 200.142C482.581 200.142 484.043 198.104 484.043 194.562C484.043 191.046 482.56 189.003 480.084 189.003C477.602 189.003 476.124 191.04 476.119 194.562C476.119 198.099 477.581 200.137 480.084 200.142ZM480.084 198.732C478.621 198.732 477.74 197.265 477.74 194.562C477.745 191.869 478.627 190.386 480.084 190.386C481.535 190.386 482.422 191.869 482.422 194.562C482.422 197.265 481.541 198.732 480.084 198.732Z" fill="#A9A9A9"></path><defs><linearGradient id="paint0_linear" x1="228.89" y1="62" x2="228.89" y2="249.89" gradientUnits="userSpaceOnUse"><stop stop-color="#D8DBEF"></stop><stop offset="1" stop-color="white"></stop></linearGradient><linearGradient id="paint1_linear" x1="29.3517" y1="320.313" x2="436.263" y2="259.747" gradientUnits="userSpaceOnUse"><stop stop-color="#F52955"></stop><stop offset="0.44324" stop-color="#7E54D3"></stop><stop offset="0.731428" stop-color="#40A2EC"></stop><stop offset="1" stop-color="#48DE8E"></stop></linearGradient></defs></svg> 